<svg xmlns="http://www.w3.org/2000/svg" viewBox="0 0 300.63 250"><defs><style>.cls-1{fill:#5564aa;}.cls-2{fill:#0d1433;}.cls-3{fill:#a97c50;}.cls-14,.cls-4{fill:none;}.cls-5{fill:#8b5e3c;}.cls-6{fill:#754c29;}.cls-15,.cls-7{fill:#fbb040;}.cls-8{fill:#006838;}.cls-9{fill:#03723b;}.cls-10{fill:#018744;}.cls-11{fill:#be1e2d;}.cls-12{fill:#ffde17;}.cls-13{fill:#1b75bc;}.cls-14{stroke:#ed1c24;stroke-linecap:round;}.cls-14,.cls-15,.cls-16,.cls-19{stroke-miterlimit:10;}.cls-15{stroke:#fff200;stroke-width:4px;}.cls-16{fill:#cbebf6;stroke:#bcdde2;}.cls-17{fill:#f9f9fa;}.cls-18{fill:#eaeaea;}.cls-19{fill:#fff;stroke:#bcbec0;}.cls-20{fill:#603913;}.cls-21{fill:#d88e2c;}</style></defs><title>Christmas BG (No Presents)</title><g id="Background"><rect class="cls-1" width="300" height="250"/><rect class="cls-2" x="153.73" y="206.94" width="146.27" height="43.06"/></g><g id="Table"><polygon class="cls-3" points="300 164.44 300 197.18 137.05 197.18 184.28 164.4 300 164.44"/><line class="cls-4" x1="300.63" y1="197.16" x2="300.63" y2="164.42"/><rect class="cls-5" x="137.05" y="197.18" width="162.95" height="10.3"/><rect class="cls-6" x="137.05" y="207.48" width="17.57" height="42.52"/></g><g id="Chrismas_Tree" data-name="Chrismas Tree"><rect class="cls-5" x="74.4" y="176.7" width="14.66" height="43.3"/><rect class="cls-7" x="79.16" y="24.07" width="5.13" height="20.38"/><path class="cls-8" d="M73.66,97.18l-60.92,65a11.06,11.06,0,0,0,8.07,18.62H142.65a11.06,11.06,0,0,0,8.07-18.62l-60.93-65A11.05,11.05,0,0,0,73.66,97.18Z"/><path class="cls-9" d="M72.78,61.49,22.5,112.16a12.61,12.61,0,0,0,8.94,21.49H132a12.61,12.61,0,0,0,9-21.49L90.68,61.49A12.61,12.61,0,0,0,72.78,61.49Z"/><path class="cls-10" d="M75.43,42.5,42.17,72a9.5,9.5,0,0,0,6.3,16.62H115A9.51,9.51,0,0,0,121.29,72L88,42.5A9.49,9.49,0,0,0,75.43,42.5Z"/><circle class="cls-11" cx="104.03" cy="69.58" r="7.33"/><circle class="cls-12" cx="115.19" cy="109.2" r="7.33"/><circle class="cls-11" cx="92.88" cy="113.67" r="7.33"/><circle class="cls-7" cx="70.58" cy="118.14" r="7.33"/><circle class="cls-13" cx="48.27" cy="122.62" r="7.33"/><circle class="cls-11" cx="126.34" cy="151.97" r="7.33"/><circle class="cls-13" cx="104.03" cy="156.45" r="7.33"/><circle class="cls-12" cx="81.73" cy="160.92" r="7.33"/><circle class="cls-11" cx="59.42" cy="165.39" r="7.33"/><circle class="cls-7" cx="37.12" cy="169.87" r="7.33"/><circle class="cls-7" cx="81.73" cy="74.05" r="7.33"/><circle class="cls-13" cx="59.42" cy="78.53" r="7.33"/><path class="cls-14" d="M56.63,111l-4-13s-1.23-4-3.81-3.24-1.33,4.75-1.33,4.75"/><path class="cls-14" d="M116.75,177.8l6.36-12s2-3.72-.41-5-4.3,2.42-4.3,2.42"/><path class="cls-15" d="M83.12,11.18l3.24,6.57a1.56,1.56,0,0,0,1.17.85l7.25,1a1.56,1.56,0,0,1,.86,2.66L90.4,27.42A1.52,1.52,0,0,0,90,28.79L91.19,36a1.56,1.56,0,0,1-2.26,1.64l-6.48-3.41a1.55,1.55,0,0,0-1.45,0l-6.48,3.41A1.55,1.55,0,0,1,72.27,36l1.24-7.22a1.58,1.58,0,0,0-.45-1.37l-5.25-5.11a1.56,1.56,0,0,1,.87-2.66l7.24-1a1.53,1.53,0,0,0,1.17-.85l3.24-6.57A1.56,1.56,0,0,1,83.12,11.18Z"/></g><g id="Snacks"><path class="cls-16" d="M211.63,137.74v35.37a6.87,6.87,0,0,1-6.87,6.88h-5.18a6.87,6.87,0,0,1-6.87-6.88V137.74c0-1.33,4.24-2.41,9.46-2.41S211.63,136.41,211.63,137.74Z"/><path class="cls-16" d="M211.63,137.74c0,1.33-4.24,2.43-9.46,2.43s-9.46-1.1-9.46-2.43,4.24-2.41,9.46-2.41S211.63,136.41,211.63,137.74Z"/><path class="cls-17" d="M210.69,149.64v22.67c0,3.8-2.77,6.87-6.17,6.87h-4.69c-3.41,0-6.18-3.07-6.18-6.87V149.64c0-1.33,3.82-2.41,8.52-2.41S210.69,148.31,210.69,149.64Z"/><path class="cls-18" d="M210.69,149.64c0,1.33-3.82,2.43-8.52,2.43s-8.52-1.1-8.52-2.43,3.82-2.41,8.52-2.41S210.69,148.31,210.69,149.64Z"/><ellipse class="cls-19" cx="251.05" cy="186.35" rx="13.03" ry="2.72"/><ellipse class="cls-19" cx="251.05" cy="179.18" rx="34.32" ry="7.17"/><ellipse class="cls-7" cx="237.11" cy="175.1" rx="6.19" ry="13.1" transform="translate(8.7 361.42) rotate(-75.65)"/><path class="cls-20" d="M245.06,174.17a1.48,1.48,0,0,1-1.79.9c-1.36-.28-1.39-1-1-1.92s.66-1.32,1.58-1.08S245.6,173,245.06,174.17Z"/><path class="cls-20" d="M231.9,175.83a1.73,1.73,0,1,1-3.35-.86c.24-.92.73-.92,1.69-.88C231.52,174.14,232.13,174.91,231.9,175.83Z"/><path class="cls-20" d="M240.69,179.29c-.24.93-.89,1-1.73,1.12s-1.2-1.8-1-2.72,1.05-.82,1.86-.32A1.46,1.46,0,0,1,240.69,179.29Z"/><path class="cls-20" d="M236.76,173.33c-.17.65-1,.39-1.67.23s-.75-.42-.59-1.06.54-1.43,1.19-1.27A2.17,2.17,0,0,1,236.76,173.33Z"/><ellipse class="cls-7" cx="264.09" cy="178.48" rx="12.46" ry="5.89" transform="translate(-35.49 69.61) rotate(-14.08)"/><path class="cls-20" d="M270.31,174.1a1.38,1.38,0,0,1-1.09,1.56c-1.26.39-1.62-.23-1.73-1.13-.1-.75-.05-1.4.83-1.62S270.22,172.83,270.31,174.1Z"/><path class="cls-20" d="M260.06,181.45a1.64,1.64,0,1,1-3.19.8c-.22-.88.19-1.11,1-1.51C259,180.21,259.84,180.57,260.06,181.45Z"/><path class="cls-20" d="M269,180.37c.22.88-.28,1.26-.94,1.71s-1.82-1-2-1.83.51-1.16,1.42-1.12A1.4,1.4,0,0,1,269,180.37Z"/><path class="cls-20" d="M263,177.16c.15.62-.68.79-1.29,1s-.82,0-1-.62-.2-1.45.41-1.6A2.06,2.06,0,0,1,263,177.16Z"/><ellipse class="cls-21" cx="250.04" cy="172.48" rx="13.31" ry="6.29"/><path class="cls-20" d="M257.63,169.56a1.51,1.51,0,0,1-1.54,1.34c-1.41.06-1.63-.67-1.51-1.63.11-.8.32-1.46,1.29-1.46S257.85,168.22,257.63,169.56Z"/><path class="cls-20" d="M245.09,174.51a1.76,1.76,0,0,1-3.51,0c0-1,.49-1.1,1.44-1.3C244.29,172.94,245.09,173.54,245.09,174.51Z"/><path class="cls-20" d="M254.62,175.7c0,1-.62,1.24-1.43,1.53s-1.63-1.46-1.63-2.43.83-1.07,1.76-.78S254.62,174.73,254.62,175.7Z"/><path class="cls-20" d="M249.24,170.83c0,.67-.9.64-1.58.64s-.84-.22-.84-.9.17-1.54.84-1.54S249.24,170.15,249.24,170.83Z"/></g></svg>