<svg id="Presents" xmlns="http://www.w3.org/2000/svg" viewBox="0 0 107.9 50.92"><defs><style>.cls-1{fill:#ef4136;}.cls-2{fill:#f7941d;}.cls-3{fill:#d1d3d4;}.cls-4{fill:#f2e358;}.cls-5{fill:#1b75bc;}.cls-6{fill:#fbb040;}</style></defs><title>Presents</title><rect class="cls-1" x="1.38" y="7.3" width="44.22" height="32.39"/><rect class="cls-2" x="18.63" y="7.3" width="9.72" height="32.39"/><rect class="cls-1" y="5.93" width="46.97" height="10.24"/><rect class="cls-2" x="16.74" y="5.93" width="13.49" height="11.3"/><ellipse class="cls-2" cx="40.22" cy="188.65" rx="2.83" ry="6.92" transform="translate(-172.17 -27.57) rotate(-68.65)"/><ellipse class="cls-2" cx="50.84" cy="188.65" rx="6.92" ry="2.83" transform="translate(-87.23 -153.55) rotate(-21.35)"/><rect class="cls-3" x="71.84" y="12.16" width="34.97" height="37.82"/><rect class="cls-4" x="85.48" y="12.16" width="7.69" height="37.82"/><rect class="cls-3" x="70.75" y="10.57" width="37.15" height="11.96"/><rect class="cls-4" x="83.99" y="10.57" width="10.67" height="13.19"/><ellipse class="cls-4" cx="107.17" cy="192.9" rx="3.03" ry="5.96" transform="translate(-134.12 -17.13) rotate(-54.43)"/><ellipse class="cls-4" cx="115.56" cy="192.9" rx="5.96" ry="3.03" transform="translate(-112.69 -81.8) rotate(-35.57)"/><rect class="cls-5" x="29.84" y="15.75" width="48.01" height="35.17"/><rect class="cls-6" x="48.57" y="15.75" width="10.55" height="35.17"/><rect class="cls-5" x="28.35" y="14.26" width="51" height="11.12"/><rect class="cls-6" x="46.52" y="14.26" width="14.65" height="12.27"/><ellipse class="cls-6" cx="70.13" cy="196.78" rx="3.07" ry="7.51" transform="translate(-160.72 5.46) rotate(-68.65)"/><ellipse class="cls-6" cx="81.65" cy="196.78" rx="7.51" ry="3.07" transform="translate(-88.08 -141.78) rotate(-21.35)"/></svg>