<svg xmlns="http://www.w3.org/2000/svg" viewBox="0 0 163.58 115.17"><defs><style>.cls-1{fill:#a97c50;}.cls-2{fill:none;}.cls-3{fill:#8b5e3c;}.cls-4{fill:#754c29;}.cls-5{fill:#0d1433;}.cls-6{fill:#cbebf6;stroke:#bcdde2;}.cls-6,.cls-9{stroke-miterlimit:10;}.cls-7{fill:#f9f9fa;}.cls-8{fill:#eaeaea;}.cls-9{fill:#fff;stroke:#bcbec0;}.cls-10{fill:#fbb040;}.cls-11{fill:#603913;}.cls-12{fill:#d88e2c;}</style></defs><title>Table</title><g id="Table"><polygon class="cls-1" points="162.95 29.61 162.95 62.35 0 62.35 47.23 29.57 162.95 29.61"/><line class="cls-2" x1="163.58" y1="62.33" x2="163.58" y2="29.59"/><rect class="cls-3" y="62.35" width="162.95" height="10.3"/><rect class="cls-4" y="72.65" width="17.57" height="42.52"/><rect class="cls-5" x="16.68" y="72.11" width="146.27" height="43.06"/></g><g id="Snacks"><path class="cls-6" d="M211.63,137.74v35.37a6.87,6.87,0,0,1-6.87,6.88h-5.18a6.87,6.87,0,0,1-6.87-6.88V137.74c0-1.33,4.24-2.41,9.46-2.41S211.63,136.41,211.63,137.74Z" transform="translate(-137.05 -134.83)"/><path class="cls-6" d="M211.63,137.74c0,1.33-4.24,2.43-9.46,2.43s-9.46-1.1-9.46-2.43,4.24-2.41,9.46-2.41S211.63,136.41,211.63,137.74Z" transform="translate(-137.05 -134.83)"/><path class="cls-7" d="M210.69,149.64v22.67c0,3.8-2.77,6.87-6.17,6.87h-4.69c-3.41,0-6.18-3.07-6.18-6.87V149.64c0-1.33,3.82-2.41,8.52-2.41S210.69,148.31,210.69,149.64Z" transform="translate(-137.05 -134.83)"/><path class="cls-8" d="M210.69,149.64c0,1.33-3.82,2.43-8.52,2.43s-8.52-1.1-8.52-2.43,3.82-2.41,8.52-2.41S210.69,148.31,210.69,149.64Z" transform="translate(-137.05 -134.83)"/><ellipse class="cls-9" cx="114" cy="51.52" rx="13.03" ry="2.72"/><ellipse class="cls-9" cx="114" cy="44.35" rx="34.32" ry="7.17"/><ellipse class="cls-10" cx="237.11" cy="175.1" rx="6.19" ry="13.1" transform="translate(-128.35 226.59) rotate(-75.65)"/><path class="cls-11" d="M245.06,174.17a1.48,1.48,0,0,1-1.79.9c-1.36-.28-1.39-1-1-1.92s.66-1.32,1.58-1.08S245.6,173,245.06,174.17Z" transform="translate(-137.05 -134.83)"/><path class="cls-11" d="M231.9,175.83a1.73,1.73,0,1,1-3.35-.86c.24-.92.73-.92,1.69-.88C231.52,174.14,232.13,174.91,231.9,175.83Z" transform="translate(-137.05 -134.83)"/><path class="cls-11" d="M240.69,179.29c-.24.93-.89,1-1.73,1.12s-1.2-1.8-1-2.72,1.05-.82,1.86-.32A1.46,1.46,0,0,1,240.69,179.29Z" transform="translate(-137.05 -134.83)"/><path class="cls-11" d="M236.76,173.33c-.17.65-1,.39-1.67.23s-.75-.42-.59-1.06.54-1.43,1.19-1.27A2.17,2.17,0,0,1,236.76,173.33Z" transform="translate(-137.05 -134.83)"/><ellipse class="cls-10" cx="264.09" cy="178.48" rx="12.46" ry="5.89" transform="translate(-172.54 -65.22) rotate(-14.08)"/><path class="cls-11" d="M270.31,174.1a1.38,1.38,0,0,1-1.09,1.56c-1.26.39-1.62-.23-1.73-1.13-.1-.75-.05-1.4.83-1.62S270.22,172.83,270.31,174.1Z" transform="translate(-137.05 -134.83)"/><path class="cls-11" d="M260.06,181.45a1.64,1.64,0,1,1-3.19.8c-.22-.88.19-1.11,1-1.51C259,180.21,259.84,180.57,260.06,181.45Z" transform="translate(-137.05 -134.83)"/><path class="cls-11" d="M269,180.37c.22.88-.28,1.26-.94,1.71s-1.82-1-2-1.83.51-1.16,1.42-1.12A1.4,1.4,0,0,1,269,180.37Z" transform="translate(-137.05 -134.83)"/><path class="cls-11" d="M263,177.16c.15.62-.68.79-1.29,1s-.82,0-1-.62-.2-1.45.41-1.6A2.06,2.06,0,0,1,263,177.16Z" transform="translate(-137.05 -134.83)"/><ellipse class="cls-12" cx="112.99" cy="37.65" rx="13.31" ry="6.29"/><path class="cls-11" d="M257.63,169.56a1.51,1.51,0,0,1-1.54,1.34c-1.41.06-1.63-.67-1.51-1.63.11-.8.32-1.46,1.29-1.46S257.85,168.22,257.63,169.56Z" transform="translate(-137.05 -134.83)"/><path class="cls-11" d="M245.09,174.51a1.76,1.76,0,0,1-3.51,0c0-1,.49-1.1,1.44-1.3C244.29,172.94,245.09,173.54,245.09,174.51Z" transform="translate(-137.05 -134.83)"/><path class="cls-11" d="M254.62,175.7c0,1-.62,1.24-1.43,1.53s-1.63-1.46-1.63-2.43.83-1.07,1.76-.78S254.62,174.73,254.62,175.7Z" transform="translate(-137.05 -134.83)"/><path class="cls-11" d="M249.24,170.83c0,.67-.9.64-1.58.64s-.84-.22-.84-.9.17-1.54.84-1.54S249.24,170.15,249.24,170.83Z" transform="translate(-137.05 -134.83)"/></g></svg>