<svg id="Layer_1" data-name="Layer 1" xmlns="http://www.w3.org/2000/svg" viewBox="0 0 300 126.88"><defs><style>.cls-1{fill:#8b5e3c;}.cls-2{fill:#006838;}.cls-3{fill:#ffde17;}.cls-4{fill:#be1e2d;}.cls-5{fill:#fbb040;}.cls-6{fill:none;stroke:#ed1c24;stroke-linecap:round;stroke-miterlimit:10;stroke-width:2px;}</style></defs><title>Treeunder</title><rect class="cls-1" x="132.96" y="26.27" width="34.07" height="100.62"/><rect class="cls-2" width="300" height="35.77"/><path class="cls-3" d="M163.49.12A17,17,0,0,1,150,6.76,17,17,0,0,1,136.51.12Z" transform="translate(0 -0.12)"/><path class="cls-4" d="M115.2.12a17,17,0,0,1-17,17,17,17,0,0,1-17-17Z" transform="translate(0 -0.12)"/><path class="cls-5" d="M63.37,10.51a17,17,0,0,1-34.08,0A16.86,16.86,0,0,1,32.84.12h27A16.86,16.86,0,0,1,63.37,10.51Z" transform="translate(0 -0.12)"/><path class="cls-6" d="M230.37,29.94,245.15,2.11s.2-.37.47-1" transform="translate(0 -0.12)"/></svg>