<svg id="Chrismas_Tree" data-name="Chrismas Tree" xmlns="http://www.w3.org/2000/svg" viewBox="0 0 144 211.68"><defs><style>.cls-1{fill:#8b5e3c;}.cls-2,.cls-7{fill:#fbb040;}.cls-3{fill:#006838;}.cls-4{fill:#03723b;}.cls-5{fill:#018744;}.cls-6{fill:none;stroke:#ed1c24;stroke-linecap:round;}.cls-6,.cls-7{stroke-miterlimit:10;}.cls-7{stroke:#fff200;stroke-width:4px;}</style></defs><title>Tree</title><rect class="cls-1" x="64.67" y="168.38" width="14.66" height="43.3"/><rect class="cls-2" x="69.43" y="15.76" width="5.13" height="20.38"/><path class="cls-3" d="M73.66,97.18l-60.92,65a11.06,11.06,0,0,0,8.07,18.62H142.65a11.06,11.06,0,0,0,8.07-18.62l-60.93-65A11.05,11.05,0,0,0,73.66,97.18Z" transform="translate(-9.73 -8.32)"/><path class="cls-4" d="M72.78,61.49,22.5,112.16a12.61,12.61,0,0,0,8.94,21.49H132a12.61,12.61,0,0,0,9-21.49L90.68,61.49A12.61,12.61,0,0,0,72.78,61.49Z" transform="translate(-9.73 -8.32)"/><path class="cls-5" d="M75.43,42.5,42.17,72a9.5,9.5,0,0,0,6.3,16.62H115A9.51,9.51,0,0,0,121.29,72L88,42.5A9.49,9.49,0,0,0,75.43,42.5Z" transform="translate(-9.73 -8.32)"/><path class="cls-6" d="M56.63,111l-4-13s-1.23-4-3.81-3.24-1.33,4.75-1.33,4.75" transform="translate(-9.73 -8.32)"/><path class="cls-6" d="M116.75,177.8l6.36-12s2-3.72-.41-5-4.3,2.42-4.3,2.42" transform="translate(-9.73 -8.32)"/><path class="cls-7" d="M83.12,11.18l3.24,6.57a1.56,1.56,0,0,0,1.17.85l7.25,1a1.56,1.56,0,0,1,.86,2.66L90.4,27.42A1.52,1.52,0,0,0,90,28.79L91.19,36a1.56,1.56,0,0,1-2.26,1.64l-6.48-3.41a1.55,1.55,0,0,0-1.45,0l-6.48,3.41A1.55,1.55,0,0,1,72.27,36l1.24-7.22a1.58,1.58,0,0,0-.45-1.37l-5.25-5.11a1.56,1.56,0,0,1,.87-2.66l7.24-1a1.53,1.53,0,0,0,1.17-.85l3.24-6.57A1.56,1.56,0,0,1,83.12,11.18Z" transform="translate(-9.73 -8.32)"/></svg>